<?xml version="1.0" encoding="UTF-8" standalone="no"?>
<!-- Created with Inkscape (http://www.inkscape.org/) -->

<svg
   xmlns:dc="http://purl.org/dc/elements/1.1/"
   xmlns:cc="http://creativecommons.org/ns#"
   xmlns:rdf="http://www.w3.org/1999/02/22-rdf-syntax-ns#"
   xmlns:svg="http://www.w3.org/2000/svg"
   xmlns="http://www.w3.org/2000/svg"
   xmlns:sodipodi="http://sodipodi.sourceforge.net/DTD/sodipodi-0.dtd"
   xmlns:inkscape="http://www.inkscape.org/namespaces/inkscape"
   width="19.98333mm"
   height="4.6221499mm"
   viewBox="0 0 19.98333 4.6221499"
   version="1.1"
   id="svg7181"
   inkscape:version="0.92.5 (2060ec1f9f, 2020-04-08)"
   sodipodi:docname="TMS_Text.svg">
  <defs
     id="defs7175" />
  <sodipodi:namedview
     id="base"
     pagecolor="#ffffff"
     bordercolor="#666666"
     borderopacity="1.0"
     inkscape:pageopacity="0.0"
     inkscape:pageshadow="2"
     inkscape:zoom="2.4014009"
     inkscape:cx="33.459607"
     inkscape:cy="47.651537"
     inkscape:document-units="mm"
     inkscape:current-layer="layer1"
     showgrid="false"
     fit-margin-top="0"
     fit-margin-left="0"
     fit-margin-right="0"
     fit-margin-bottom="0"
     inkscape:window-width="1440"
     inkscape:window-height="829"
     inkscape:window-x="0"
     inkscape:window-y="0"
     inkscape:window-maximized="1" />
  <metadata
     id="metadata7178">
    <rdf:RDF>
      <cc:Work
         rdf:about="">
        <dc:format>image/svg+xml</dc:format>
        <dc:type
           rdf:resource="http://purl.org/dc/dcmitype/StillImage" />
        <dc:title></dc:title>
      </cc:Work>
    </rdf:RDF>
  </metadata>
  <g
     inkscape:label="Layer 1"
     inkscape:groupmode="layer"
     id="layer1"
     transform="translate(354.0459,-225.03473)">
    <path
       inkscape:connector-curvature="0"
       d="m -342.99822,229.29351 c 0,0.2001 -0.16221,0.36233 -0.36231,0.36233 -0.2001,0 -0.36232,-0.16223 -0.36232,-0.36233 0,-0.2001 0.16222,-0.36232 0.36232,-0.36232 0.2001,0 0.36232,0.16222 0.36231,0.36232 z m 7.70063,-1.73303 v 2.05935 h 1.23502 v -0.37624 h -0.77128 v -0.47105 -0.37624 -0.45818 h 0.72395 v -0.37764 z m 0.62263,0.83582 v 0.37624 h 0.51479 v -0.37624 z m -1.50531,-0.87027 c -0.23726,0.003 -0.44189,0.0602 -0.61394,0.17331 l 0.15375,0.15376 0.16152,0.16152 c 0.0988,-0.0596 0.21576,-0.0894 0.35112,-0.0894 0.17617,0 0.33317,0.0412 0.47104,0.12349 v -0.44668 c -0.13787,-0.0508 -0.30722,-0.0761 -0.50827,-0.0761 h -0.0152 z m -0.74024,0.27168 c -0.0126,0.0115 -0.0252,0.0233 -0.0374,0.0357 -0.20299,0.20489 -0.30442,0.47201 -0.30442,0.80137 0,0.30925 0.0905,0.55667 0.27136,0.74241 0.18096,0.18573 0.42942,0.27865 0.74536,0.27865 0.24223,0 0.4385,-0.0364 0.58882,-0.10923 v -0.42355 c -0.15032,0.0881 -0.31584,0.13201 -0.49681,0.13201 -0.18957,0 -0.3404,-0.0588 -0.45242,-0.17655 -0.11202,-0.11874 -0.16804,-0.27764 -0.16804,-0.4768 0,-0.20355 0.057,-0.36571 0.17099,-0.48656 l -0.14973,-0.14972 z m -1.75213,-0.23723 -0.74971,2.05935 h 0.50269 l 0.14508,-0.45801 0.0992,-0.35624 0.22402,-0.69788 c 0.0191,-0.0594 0.0311,-0.11934 0.0358,-0.17967 h 0.0115 c 0.007,0.0718 0.0182,0.13371 0.0345,0.18542 l 0.22125,0.69213 h -0.36818 l -0.0991,0.35624 h 0.5736 l 0.14646,0.45801 h 0.50549 l -0.73248,-2.05935 z m -2.33523,0 v 0.83923 h 0.46392 v -0.48316 h 0.18246 c 0.247,0 0.3705,0.10586 0.3705,0.31745 0,0.21638 -0.1235,0.32458 -0.3705,0.32458 h -0.18246 -0.46392 v 1.06125 h 0.46392 v -0.70936 h 0.22108 c 0.24894,0 0.4477,-0.0637 0.5961,-0.19099 0.14937,-0.12831 0.22405,-0.29588 0.22405,-0.5027 0,-0.43755 -0.25947,-0.6563 -0.77841,-0.6563 z m -0.94348,-0.0344 c -0.10915,0 -0.21266,0.0119 -0.31031,0.0358 -0.0977,0.0231 -0.18382,0.0595 -0.25849,0.10922 -0.0737,0.0498 -0.13208,0.11345 -0.17517,0.19099 -0.0431,0.0767 -0.0646,0.16849 -0.0646,0.27572 0,0.13691 0.0393,0.25362 0.11775,0.35033 0.0652,0.0793 0.15774,0.14869 0.27773,0.20806 l 0.18696,-0.18695 0.15641,-0.1564 c -0.008,-0.004 -0.016,-0.008 -0.0237,-0.0111 -0.0479,-0.0239 -0.0886,-0.0478 -0.12211,-0.0717 -0.0335,-0.0249 -0.0592,-0.0508 -0.0774,-0.0776 -0.0182,-0.0277 -0.0272,-0.0589 -0.0272,-0.0934 0,-0.0315 0.008,-0.0598 0.0243,-0.0848 0.0163,-0.0259 0.0392,-0.0479 0.0689,-0.0661 0.0297,-0.0183 0.0661,-0.032 0.10922,-0.0416 0.0431,-0.0105 0.0908,-0.0158 0.14351,-0.0158 0.0383,0 0.0786,0.003 0.12073,0.009 0.0431,0.006 0.0861,0.0149 0.12923,0.0273 0.0431,0.0115 0.0847,0.0264 0.12491,0.0445 0.0411,0.0183 0.0791,0.0392 0.11356,0.0632 v -0.42932 c -0.0699,-0.0269 -0.14648,-0.0465 -0.22977,-0.0589 -0.0823,-0.0134 -0.17717,-0.02 -0.2844,-0.02 z m 0.0869,0.89509 -0.2006,0.2006 -0.14289,0.14291 c 0.0358,0.0152 0.0701,0.0304 0.10286,0.0453 0.0545,0.0249 0.10161,0.0508 0.14087,0.0776 0.0402,0.0269 0.0716,0.056 0.0947,0.0875 0.023,0.0316 0.0346,0.0677 0.0346,0.10783 0,0.0297 -0.007,0.0573 -0.0216,0.0832 -0.0145,0.0248 -0.0364,0.047 -0.0661,0.0661 -0.0287,0.0183 -0.0651,0.0325 -0.10922,0.0432 -0.0431,0.0105 -0.0938,0.0158 -0.15221,0.0158 -0.0996,0 -0.19822,-0.0172 -0.29589,-0.0517 -0.0977,-0.0354 -0.18806,-0.0882 -0.27135,-0.15809 v 0.45956 c 0.0746,0.0383 0.16274,0.0672 0.26423,0.0863 0.10244,0.0191 0.21019,0.0287 0.32316,0.0287 0.11012,0 0.2145,-0.0106 0.31312,-0.0317 0.0996,-0.0211 0.18675,-0.0555 0.26144,-0.10332 0.0746,-0.0488 0.13348,-0.11206 0.17656,-0.1896 0.0441,-0.0785 0.0661,-0.17525 0.0661,-0.29014 0,-0.0833 -0.0125,-0.15607 -0.0374,-0.2183 -0.0248,-0.0632 -0.0607,-0.1192 -0.10768,-0.16803 -0.0469,-0.0488 -0.10336,-0.0923 -0.16942,-0.13065 -0.0604,-0.0363 -0.12815,-0.0708 -0.20325,-0.10302 z m -3.82437,-0.8248 v 1.27101 h 0.4639 0.1249 c 0.0287,0 0.0551,0.006 0.0789,0.0187 0.0248,0.0115 0.0484,0.0288 0.0704,0.0518 0.0231,0.022 0.0455,0.0487 0.0675,0.0804 0.022,0.0315 0.0449,0.0675 0.0689,0.10768 l 0.32023,0.52999 h 0.5328 l -0.38914,-0.60896 c -0.0201,-0.0316 -0.0427,-0.0637 -0.0675,-0.0962 -0.0239,-0.0335 -0.0493,-0.0647 -0.0762,-0.0934 -0.0269,-0.0287 -0.0546,-0.0535 -0.0833,-0.0746 -0.0287,-0.022 -0.0582,-0.0377 -0.0889,-0.0473 v -0.006 c 0.0699,-0.0201 0.13296,-0.0478 0.18945,-0.0832 0.0575,-0.0354 0.1064,-0.0775 0.14662,-0.12645 0.0402,-0.0488 0.0712,-0.10336 0.0933,-0.16369 0.022,-0.0612 0.033,-0.12786 0.033,-0.19968 0,-0.37339 -0.24992,-0.56009 -0.74971,-0.56009 z m 0.4639,0.34754 h 0.20962 c 0.21542,0 0.32319,0.09 0.32319,0.26997 0,0.0861 -0.0306,0.1585 -0.0918,0.2169 -0.0604,0.0574 -0.14029,0.0861 -0.23987,0.0861 h -0.20108 z m -0.4639,1.08235 v 0.62961 h 0.4639 v -0.62961 z m -1.56535,-1.42989 v 2.0595 h 0.46376 v -0.37625 -0.47119 h 0.67369 v -0.37626 h -0.67369 v -0.45816 h 0.72394 v -0.37764 z m 0.62263,1.68325 v 0.37625 h 0.6124 v -0.37625 z m -2.53131,-1.68325 v 2.0595 h 0.46389 v -1.00818 h 0.007 c 0.0249,0.0584 0.0432,0.0962 0.0546,0.11341 l 0.60029,0.89477 h 0.58586 l -0.77981,-1.07723 -0.46096,-0.009 h -0.007 v -0.97376 z m 1.09722,0 -0.50346,0.76009 h 0.50068 l 0.5556,-0.76009 z m -2.63682,0 -0.74969,2.0595 h 0.50268 l 0.14507,-0.45816 h 0.36617 0.18323 0.0241 l -0.10628,-0.35623 h -0.10457 -0.26361 l 0.22405,-0.69789 c 0.0192,-0.0594 0.031,-0.1192 0.0359,-0.17952 h 0.0115 c 0.007,0.0718 0.0182,0.13357 0.0345,0.18527 l 0.22126,0.69214 0.10627,0.35623 0.14647,0.45816 h 0.50548 l -0.73248,-2.0595 z m -2.51833,2.06051 -0.34823,-1.38695 c -0.0134,-0.0374 -0.035,-0.13307 -0.0647,-0.28722 0,0 0.0268,1.11541 0.0268,1.67312 h -0.43899 v -2.05944 h 0.69803 l 0.42811,1.21652 z m 0.85956,-2.06049 h 0.66206 v 2.05944 h -0.45813 v -1.23222 c 0,-0.13309 0.006,-0.28006 0.0172,-0.4409 h -0.0115 c -0.0239,0.12637 -0.0455,0.21734 -0.0647,0.27286 l -0.48255,1.40026 h -0.37915 c 0.25791,-0.69064 0.46787,-1.33951 0.71663,-2.05944 z m 15.74483,-2.52712 h 0.56496 v 0.37771 h -0.56496 z m -0.15888,0.37771 v 0.45814 h 0.67357 v 0.37627 h -0.67357 v 0.47106 h 0.77123 v 0.37628 h -1.2351 v -2.05946 h 0.46387 z m -1.32843,0.87894 h -0.41219 v -0.37054 h 0.87606 v 0.37052 z m 0.46387,0.15887 v 0.50606 c -0.20107,0.11586 -0.45096,0.17378 -0.74968,0.17378 -0.33126,0 -0.59266,-0.0914 -0.78416,-0.2743 -0.19052,-0.18383 -0.28578,-0.4366 -0.28578,-0.7583 0,-0.3236 0.10437,-0.58739 0.31308,-0.79133 0.20872,-0.20394 0.48638,-0.30589 0.83298,-0.30589 0.2183,0 0.41075,0.0301 0.57733,0.0904 v 0.43517 c -0.15893,-0.0919 -0.35329,-0.13788 -0.58308,-0.13788 -0.19244,0 -0.34946,0.0627 -0.47105,0.18814 -0.12064,0.12447 -0.18096,0.29106 -0.18096,0.49979 0,0.21159 0.0541,0.37531 0.16228,0.49116 0.10916,0.11585 0.25611,0.17379 0.4409,0.17379 0.11107,0 0.19916,-0.0158 0.26427,-0.0474 v -0.24324 z m -3.39516,-1.03778 h 0.22699 c 0.20489,0 0.3638,0.0565 0.47679,0.16944 0.11392,0.11202 0.17097,0.26624 0.17097,0.46252 0,0.20775 -0.0575,0.37196 -0.17237,0.4926 -0.11394,0.12065 -0.27153,0.18091 -0.4726,0.18091 h -0.22978 v -1.14659 h -0.46375 v 1.52284 h 0.72953 c 0.33223,0 0.59787,-0.0957 0.79702,-0.28719 0.2001,-0.19149 0.30023,-0.44758 0.30023,-0.76832 0,-0.66925 -0.36576,-1.004 -1.09725,-1.004 h -0.72953 v 0.37779 z m -0.93199,1.32268 h 0.17233 v 0.35904 h -0.80857 v -0.35904 h 0.17236 z m -0.46388,-0.15888 v -1.1825 h -0.17236 v -0.35904 h 0.80857 v 0.35904 h -0.17233 v 1.1825 z m -1.92023,-0.62091 v 1.13883 h 0.46391 v -0.78848 h 0.12505 c 0.0287,0 0.0551,0.006 0.0789,0.0187 0.0248,0.0115 0.0483,0.0287 0.0702,0.0517 0.023,0.022 0.0455,0.0487 0.0675,0.0804 0.022,0.0315 0.0451,0.0675 0.0691,0.10768 l 0.32023,0.53 h 0.53279 l -0.38927,-0.60899 c -0.0201,-0.0315 -0.0427,-0.0636 -0.0675,-0.0962 -0.0239,-0.0335 -0.0492,-0.0645 -0.0761,-0.0933 -0.0269,-0.0287 -0.0546,-0.0537 -0.0833,-0.0747 -0.0287,-0.022 -0.0584,-0.0377 -0.0891,-0.0473 v -0.006 c 0.0699,-0.0201 0.1331,-0.0478 0.18958,-0.0833 0.0575,-0.0354 0.10625,-0.0776 0.14647,-0.12645 0.0402,-0.0488 0.0714,-0.10337 0.0934,-0.16367 0.022,-0.0612 0.033,-0.12789 0.033,-0.1997 0,-0.3734 -0.24992,-0.56011 -0.74971,-0.56011 h -0.73543 v 0.76182 h 0.46393 v -0.41428 h 0.20976 c 0.21541,0 0.32302,0.0901 0.32302,0.27013 0,0.0862 -0.0307,0.15835 -0.0918,0.21675 -0.0604,0.0575 -0.14029,0.0863 -0.23989,0.0863 h -0.20106 z m -1.88558,-0.92068 v 2.05951 h 0.79129 c 0.23362,0 0.41796,-0.055 0.55296,-0.16507 0.13498,-0.11108 0.20247,-0.26103 0.20247,-0.44964 0,-0.12925 -0.0442,-0.23878 -0.13217,-0.32878 -0.0871,-0.09 -0.20386,-0.14411 -0.35034,-0.1623 v -0.006 c 0.11679,-0.0325 0.21249,-0.0904 0.28717,-0.17378 0.0756,-0.0833 0.11343,-0.18062 0.11343,-0.29169 0,-0.1532 -0.0617,-0.27183 -0.18526,-0.35607 -0.12351,-0.0842 -0.30006,-0.12647 -0.52985,-0.12647 z m 0.46391,0.34181 h 0.17376 c 0.22597,0 0.33888,0.0757 0.33888,0.227 0,0.0814 -0.0277,0.14547 -0.0833,0.19239 -0.0546,0.046 -0.12969,0.0691 -0.22543,0.0691 h -0.0449 v 0.34458 h 0.0952 c 0.10723,0 0.19059,0.0235 0.24996,0.0704 0.0604,0.0469 0.0904,0.11145 0.0904,0.19378 0,0.0861 -0.0308,0.15425 -0.092,0.20403 -0.0604,0.0498 -0.14412,0.0746 -0.25135,0.0746 h -0.2512 z m -2.34964,0.58601 v 1.13169 h -0.43802 v -1.74171 z m 0.98234,0.17628 c -0.0123,-0.3418 -0.006,-0.68513 -0.006,-1.10405 h 0.43803 v 1.7417 z m 0.4323,0.95541 h -0.46819 l -0.84876,-1.29399 c -0.0498,-0.0756 -0.0842,-0.1326 -0.10341,-0.17091 l -0.43232,-0.59456 h 0.49978 z m -4.94757,-1.52287 v 1.52287 h -0.46532 v -1.52287 z m -1.04984,-0.15888 v -0.37771 h 1.63723 v 0.37771 h -0.82004 z m 2.80316,-0.41221 c -0.27577,0.003 -0.50281,0.0857 -0.68112,0.2484 l 0.23691,0.23676 0.076,0.076 c 0.0938,-0.10795 0.21714,-0.162 0.3699,-0.162 0.15797,0 0.28234,0.0594 0.3733,0.17813 0.0909,0.11873 0.13651,0.28485 0.13651,0.49835 0,0.1211 -0.0164,0.22667 -0.0492,0.31666 l 0.15748,0.15734 0.18137,0.18137 c 0.13235,-0.18304 0.19859,-0.41007 0.19859,-0.68112 0,-0.315 -0.091,-0.56874 -0.27291,-0.76118 -0.18096,-0.19248 -0.41838,-0.28875 -0.71231,-0.28875 h -0.0145 z m -0.78942,0.36462 c -0.15238,0.19204 -0.22855,0.43429 -0.22855,0.72689 0,0.30828 0.0928,0.55864 0.27851,0.7511 0.18573,0.19148 0.4261,0.28718 0.721,0.28718 0.29236,0 0.53095,-0.0925 0.71602,-0.27756 l -0.19021,-0.19023 -0.12288,-0.12287 c -0.004,0.006 -0.009,0.0119 -0.0137,0.0177 -0.0939,0.11488 -0.2207,0.17237 -0.38059,0.17237 -0.1551,0 -0.28065,-0.0594 -0.37641,-0.17813 -0.0957,-0.11872 -0.14352,-0.27998 -0.14352,-0.48392 0,-0.14335 0.0242,-0.26659 0.073,-0.36957 l -0.0999,-0.0999 z"
       style="display:inline;fill:#c9c9c9;fill-opacity:1;stroke:none;stroke-width:0.01950268;stroke-linecap:square;stroke-linejoin:miter;stroke-miterlimit:4;stroke-dasharray:none;stroke-opacity:1;paint-order:markers fill stroke"
       id="path5106"
       sodipodi:nodetypes="cccccccccccccccccccccccccsccsccccscsccscsccccccccccccccccccccccccssscccccscsscccccscccccccscccscccccccccccccsscccsccccscccscsccccccscccccccccccccscscccsscscccccccccccccccccccccccccccccccccccccccccccccccccccccccccccccccccccccccccccscccccccccccccccccccccccccccccccscsssccscscsccccscscsccccscsscccccccccccccccccccccccscccccccccccccccssccccsscsccccscsccccsccccsscsccscscsccccccccccccccccccccccccccccccccccscscccscscccscsccccscsccc" />
  </g>
</svg>
