<?xml version="1.0" encoding="UTF-8" standalone="no"?>
<!-- Created with Inkscape (http://www.inkscape.org/) -->

<svg
   xmlns:dc="http://purl.org/dc/elements/1.1/"
   xmlns:cc="http://creativecommons.org/ns#"
   xmlns:rdf="http://www.w3.org/1999/02/22-rdf-syntax-ns#"
   xmlns:svg="http://www.w3.org/2000/svg"
   xmlns="http://www.w3.org/2000/svg"
   xmlns:sodipodi="http://sodipodi.sourceforge.net/DTD/sodipodi-0.dtd"
   xmlns:inkscape="http://www.inkscape.org/namespaces/inkscape"
   width="7.4579644mm"
   height="10mm"
   viewBox="0 0 7.4579644 9.9999999"
   version="1.1"
   id="svg7181"
   inkscape:version="0.92.5 (2060ec1f9f, 2020-04-08)"
   sodipodi:docname="TMS_Castle.svg">
  <defs
     id="defs7175" />
  <sodipodi:namedview
     id="base"
     pagecolor="#ffffff"
     bordercolor="#666666"
     borderopacity="1.0"
     inkscape:pageopacity="0.0"
     inkscape:pageshadow="2"
     inkscape:zoom="14.130839"
     inkscape:cx="-44.093862"
     inkscape:cy="11.23109"
     inkscape:document-units="mm"
     inkscape:current-layer="layer1"
     showgrid="false"
     fit-margin-top="0"
     fit-margin-left="0"
     fit-margin-right="0"
     fit-margin-bottom="0"
     inkscape:window-width="1440"
     inkscape:window-height="829"
     inkscape:window-x="0"
     inkscape:window-y="0"
     inkscape:window-maximized="1" />
  <metadata
     id="metadata7178">
    <rdf:RDF>
      <cc:Work
         rdf:about="">
        <dc:format>image/svg+xml</dc:format>
        <dc:type
           rdf:resource="http://purl.org/dc/dcmitype/StillImage" />
        <dc:title></dc:title>
      </cc:Work>
    </rdf:RDF>
  </metadata>
  <g
     inkscape:label="Layer 1"
     inkscape:groupmode="layer"
     id="layer1"
     transform="translate(362.36219,-221.05981)">
    <g
       id="g867"
       transform="matrix(1.4584967,0,0,1.4584967,185.28423,-101.10427)">
      <path
         sodipodi:nodetypes="cccccccccc"
         inkscape:connector-curvature="0"
         d="m -372.93019,226.15848 v -1.95092 h -1.2608 m 1.2608,1.95092 -2.06858,-1.52632 m 2.0686,1.52632 v -1.95092 h 1.2608 m -1.2608,1.95092 2.06858,-1.52632"
         style="fill:none;stroke:#c9c9c9;stroke-width:0.31442615;stroke-linecap:round;stroke-linejoin:round;stroke-miterlimit:4;stroke-dasharray:none;stroke-opacity:1"
         id="path1968" />
      <path
         sodipodi:nodetypes="cccccccccccccccccccccc"
         inkscape:export-ydpi="160.832"
         inkscape:export-xdpi="160.832"
         inkscape:export-filename="/home/holmes/path1329.png"
         d="m -374.19098,225.22819 v -2.59721 l -0.3862,-0.42351 v -1.16124 l 0.5044,0.004 0.003,0.56013 0.44973,-0.004 v -0.56013 h 0.45729 v 0.56013 h 0.23274 m 1.26081,3.62183 v -2.59721 l 0.38619,-0.42351 v -1.16124 h -0.5155 l -0.003,0.56013 h -0.43863 v -0.56013 h -0.47949 v 0.56013 h -0.21054"
         style="fill:none;stroke:#c9c9c9;stroke-width:0.31442615;stroke-linecap:butt;stroke-linejoin:miter;stroke-miterlimit:4;stroke-dasharray:none;stroke-opacity:1"
         id="path1970"
         inkscape:connector-curvature="0" />
      <path
         inkscape:export-ydpi="160.832"
         inkscape:export-xdpi="160.832"
         inkscape:export-filename="/home/holmes/path1329.png"
         inkscape:connector-curvature="0"
         id="path1972"
         d="m -372.77155,222.6966 c 0.11792,0 0.21284,0.11416 0.21284,0.25598 v 0.23719 0.35709 0.19605 h -0.74294 v -0.19605 -0.35709 -0.23719 c 0,-0.14182 0.0949,-0.25598 0.21286,-0.25598 z"
         style="opacity:1;fill:none;fill-opacity:0.94117647;stroke:#c9c9c9;stroke-width:0.31442615;stroke-linecap:round;stroke-linejoin:round;stroke-miterlimit:4;stroke-dasharray:none;stroke-opacity:1" />
      <path
         style="fill:none;stroke:#c9c9c9;stroke-width:0.31384444;stroke-linecap:butt;stroke-linejoin:miter;stroke-opacity:1"
         d="m -374.99877,224.63216 v 2.18478"
         id="path1974"
         inkscape:connector-curvature="0" />
      <path
         style="fill:none;stroke:#c9c9c9;stroke-width:0.31384444;stroke-linecap:butt;stroke-linejoin:miter;stroke-opacity:1"
         d="m -370.86159,224.63216 v 2.18478"
         id="path1976"
         inkscape:connector-curvature="0" />
      <path
         inkscape:connector-curvature="0"
         id="path1978"
         d="m -372.93019,226.15848 10e-6,0.65846"
         style="fill:none;stroke:#c9c9c9;stroke-width:0.31393677;stroke-linecap:butt;stroke-linejoin:miter;stroke-opacity:1" />
      <path
         inkscape:connector-curvature="0"
         id="path1980"
         d="m -374.99877,226.76774 a 0.48815419,0.48815648 0 0 0 -0.48814,0.48814 0.48815419,0.48815648 0 0 0 0.48814,0.48826 0.48815419,0.48815648 0 0 0 0.48814,-0.48826 0.48815419,0.48815648 0 0 0 -0.48814,-0.48814 z m 0,0.25844 a 0.22971968,0.22972053 0 0 1 0.22971,0.2297 0.22971968,0.22972053 0 0 1 -0.22971,0.22983 0.22971968,0.22972053 0 0 1 -0.22971,-0.22983 0.22971968,0.22972053 0 0 1 0.22971,-0.2297 z"
         style="opacity:1;fill:#c9c9c9;fill-opacity:1;stroke:none;stroke-width:0.57359725;stroke-linecap:square;stroke-linejoin:miter;stroke-miterlimit:4;stroke-dasharray:none;stroke-opacity:1" />
      <path
         inkscape:connector-curvature="0"
         id="path1982"
         d="m -372.93018,226.76774 a 0.48815419,0.48815648 0 0 0 -0.48815,0.48814 0.48815419,0.48815648 0 0 0 0.48815,0.48826 0.48815419,0.48815648 0 0 0 0.48813,-0.48826 0.48815419,0.48815648 0 0 0 -0.48813,-0.48814 z m 0,0.25844 a 0.22971968,0.22972053 0 0 1 0.2297,0.2297 0.22971968,0.22972053 0 0 1 -0.2297,0.22983 0.22971968,0.22972053 0 0 1 -0.22971,-0.22983 0.22971968,0.22972053 0 0 1 0.22971,-0.2297 z"
         style="opacity:1;fill:#c9c9c9;fill-opacity:1;stroke:none;stroke-width:0.57359725;stroke-linecap:square;stroke-linejoin:miter;stroke-miterlimit:4;stroke-dasharray:none;stroke-opacity:1" />
      <path
         style="opacity:1;fill:#c9c9c9;fill-opacity:1;stroke:none;stroke-width:0.57359725;stroke-linecap:square;stroke-linejoin:miter;stroke-miterlimit:4;stroke-dasharray:none;stroke-opacity:1"
         d="m -370.86159,226.76774 a 0.48815419,0.48815648 0 0 0 -0.48814,0.48814 0.48815419,0.48815648 0 0 0 0.48814,0.48826 0.48815419,0.48815648 0 0 0 0.48814,-0.48826 0.48815419,0.48815648 0 0 0 -0.48814,-0.48814 z m 0,0.25844 a 0.22971968,0.22972053 0 0 1 0.22971,0.2297 0.22971968,0.22972053 0 0 1 -0.22971,0.22983 0.22971968,0.22972053 0 0 1 -0.2297,-0.22983 0.22971968,0.22972053 0 0 1 0.2297,-0.2297 z"
         id="path1984"
         inkscape:connector-curvature="0" />
    </g>
  </g>
</svg>
